<svg width="800" height="800" viewBox="0 0 800 800" fill="none" xmlns="http://www.w3.org/2000/svg">
<rect width="800" height="800" fill="#242424"/>
<path d="M408.997 226.522C485.157 226.522 538.909 259.882 568.157 310.275L568.515 310.912C575.872 324.356 571.178 341.289 557.828 348.994L500.871 381.869C496.963 384.126 494.904 389.118 494.905 394.759C494.905 400.371 496.953 405.331 500.839 407.576L557.828 440.467V440.468C571.159 448.164 575.863 465.07 568.543 478.51L568.184 479.149C553.368 504.777 531.965 526.141 506.297 540.964C474.537 560.818 435.041 571.764 397.267 571.765C304.064 571.764 228.522 496.223 228.522 403.02C228.523 356.608 244.282 312.468 274.83 279.901C305.417 247.294 350.614 226.522 408.997 226.522Z" fill="#1A1A1A" stroke="#E6E6E6" stroke-width="7.04574"/>
<path fill-rule="evenodd" clip-rule="evenodd" d="M389.151 383.056C395.584 383.056 400.852 388.265 400.852 394.761C400.852 401.257 395.643 406.466 389.151 406.466C382.714 406.466 377.446 401.257 377.446 394.761C377.446 388.265 382.714 383.056 389.151 383.056ZM422.053 383.056C428.485 383.056 433.758 388.265 433.758 394.761C433.758 401.257 428.485 406.466 422.053 406.466C415.555 406.466 410.352 401.257 410.352 394.761C410.352 388.265 415.555 383.056 422.053 383.056ZM422.053 461.855H360.882C358.674 461.855 357.569 459.186 359.129 457.624L362.884 453.868C369.335 447.416 369.115 437.021 364.423 429.196C358.382 419.123 354.9 407.32 354.9 394.697C354.9 357.632 384.982 327.545 422.053 327.545C440.945 327.545 458.063 335.36 470.269 347.959C476.62 354.516 486.614 357.423 494.521 352.859L529.338 332.762C537.255 328.193 540.029 317.992 534.547 310.678C508.912 276.485 468.078 254.321 422.053 254.321C344.483 254.321 281.617 317.191 281.617 394.761C281.617 472.331 344.483 535.196 422.053 535.196C468.091 535.196 508.983 513.025 534.584 478.776C540.049 471.463 537.269 461.28 529.363 456.716L494.47 436.576C486.584 432.023 476.617 434.903 470.275 441.438C458.058 454.028 440.961 461.855 422.053 461.855ZM454.895 383.056C461.327 383.056 466.599 388.265 466.599 394.761C466.599 401.257 461.391 406.466 454.895 406.466C448.398 406.466 443.195 401.257 443.195 394.761C443.195 388.265 448.462 383.056 454.895 383.056Z" fill="#E6E6E6"/>
</svg>
