<svg width="256" height="256" viewBox="0 0 256 256" fill="none" xmlns="http://www.w3.org/2000/svg">
<rect width="256" height="256" fill="#F3F3F3" style="fill:#F3F3F3;fill:color(display-p3 0.9513 0.9513 0.9513);fill-opacity:1;"/>
<g clip-path="url(#clip0_223_1188)">
<path d="M167.256 86.7897C167.256 83.5408 164.481 80.907 161.056 80.907H95.1488C91.7248 80.9073 88.9487 83.5409 88.9487 86.7897V91.31C88.9487 92.5461 87.7581 93.4739 86.4801 93.2335L47.8775 85.973C44.5188 85.3414 41.2565 87.4128 40.5905 90.5994L27.1193 155.066C26.4541 158.252 28.6373 161.348 31.9956 161.98L72.3355 170.303C75.7668 171.011 79.1324 168.876 79.755 165.598L87.9236 122.582C88.0353 121.994 88.9487 122.071 88.9487 122.669V168.513C88.9487 171.761 91.7248 174.395 95.1488 174.395H161.056C164.481 174.395 167.256 171.762 167.256 168.513V166.466C167.256 165.213 168.478 164.282 169.768 164.551L205.587 172.025C208.931 172.723 212.238 170.717 212.974 167.544L227.854 103.358C228.589 100.185 226.474 97.0462 223.13 96.3481L182.754 88.6747C179.464 88.0494 176.247 90.0209 175.494 93.1234L168.294 122.804C168.156 123.373 167.274 123.278 167.273 122.695L167.256 108.98V86.7897Z" fill="#262626" style="fill:#262626;fill:color(display-p3 0.1475 0.1475 0.1475);fill-opacity:1;"/>
</g>
<defs>
<clipPath id="clip0_223_1188">
<rect width="201" height="93.4884" fill="white" style="fill:white;fill-opacity:1;" transform="translate(27 80.907)"/>
</clipPath>
</defs>
</svg>
