<svg width="256" height="256" viewBox="0 0 256 256" fill="none" xmlns="http://www.w3.org/2000/svg">
<rect width="256" height="256" fill="#D4D4D4" style="fill:#D4D4D4;fill:color(display-p3 0.8297 0.8297 0.8297);fill-opacity:1;"/>
<path d="M30.2522 128.847H32.0023C32.2605 128.847 32.5091 128.827 32.7482 128.789C32.9873 128.751 33.1977 128.679 33.3794 128.574C33.5611 128.459 33.7046 128.301 33.8098 128.101C33.9245 127.9 33.9819 127.637 33.9819 127.312C33.9819 126.986 33.9245 126.724 33.8098 126.523C33.7046 126.322 33.5611 126.169 33.3794 126.064C33.1977 125.949 32.9873 125.872 32.7482 125.834C32.5091 125.796 32.2605 125.777 32.0023 125.777H30.2522V128.847ZM28 124.027H32.6191C33.2599 124.027 33.805 124.122 34.2545 124.314C34.7039 124.495 35.0674 124.739 35.3447 125.045C35.6316 125.351 35.8372 125.7 35.9615 126.092C36.0954 126.484 36.1624 126.891 36.1624 127.312C36.1624 127.723 36.0954 128.129 35.9615 128.531C35.8372 128.923 35.6316 129.272 35.3447 129.578C35.0674 129.884 34.7039 130.133 34.2545 130.324C33.805 130.506 33.2599 130.597 32.6191 130.597H30.2522V134.269H28V124.027ZM46.1177 130.396C46.1177 131.783 45.7304 132.815 44.9558 133.494C44.1812 134.164 43.1101 134.499 41.7425 134.499C40.3558 134.499 39.2799 134.164 38.5149 133.494C37.7594 132.825 37.3816 131.792 37.3816 130.396V124.027H39.6338V130.396C39.6338 130.673 39.6577 130.946 39.7055 131.214C39.7533 131.481 39.8537 131.72 40.0067 131.931C40.1598 132.132 40.3702 132.299 40.6379 132.433C40.9153 132.557 41.2835 132.619 41.7425 132.619C42.5458 132.619 43.1005 132.442 43.4065 132.089C43.7125 131.725 43.8656 131.161 43.8656 130.396V124.027H46.1177V130.396ZM50.1661 128.66H52.6334C53.1499 128.66 53.5372 128.545 53.7954 128.316C54.0536 128.086 54.1827 127.713 54.1827 127.197C54.1827 126.7 54.0536 126.341 53.7954 126.121C53.5372 125.891 53.1499 125.777 52.6334 125.777H50.1661V128.66ZM47.9139 124.027H53.4368C53.8958 124.027 54.3071 124.103 54.6704 124.256C55.0434 124.4 55.359 124.6 55.6172 124.859C55.885 125.117 56.0858 125.418 56.2197 125.762C56.3632 126.097 56.4349 126.461 56.4349 126.853C56.4349 127.455 56.3058 127.976 56.0476 128.416C55.7989 128.856 55.3877 129.191 54.8139 129.42V129.449C55.0912 129.526 55.3208 129.645 55.5025 129.808C55.6842 129.961 55.8324 130.147 55.9472 130.367C56.0619 130.578 56.1432 130.812 56.191 131.07C56.2484 131.328 56.2867 131.587 56.3058 131.845C56.3154 132.007 56.3249 132.199 56.3345 132.419C56.344 132.638 56.3584 132.863 56.3775 133.093C56.4062 133.322 56.4445 133.542 56.4923 133.753C56.5496 133.953 56.6309 134.126 56.7361 134.269H54.484C54.3596 133.944 54.2831 133.557 54.2544 133.107C54.2258 132.658 54.1827 132.227 54.1253 131.816C54.0488 131.28 53.8863 130.888 53.6376 130.64C53.3889 130.391 52.9825 130.267 52.4183 130.267H50.1661V134.269H47.9139V124.027ZM58.123 124.027H65.7835V125.92H60.3752V128.115H65.3385V129.865H60.3752V132.375H65.8982V134.269H58.123V124.027ZM67.2814 124.027H69.5193L73.794 130.898H73.8227V124.027H75.9314V134.269H73.6793L69.4187 127.412H69.3901V134.269H67.2814V124.027ZM77.7708 124.027H85.4311V125.92H80.0229V128.115H84.9865V129.865H80.0229V132.375H85.5458V134.269H77.7708V124.027ZM88.4642 130.869C88.4642 131.214 88.5263 131.505 88.6508 131.744C88.7749 131.983 88.9375 132.179 89.1382 132.332C89.3487 132.476 89.5926 132.586 89.8699 132.662C90.1472 132.729 90.4343 132.763 90.7308 132.763C90.9315 132.763 91.1467 132.748 91.3761 132.72C91.6059 132.682 91.8207 132.615 92.0218 132.519C92.2225 132.423 92.3898 132.294 92.5237 132.132C92.6577 131.959 92.7248 131.744 92.7248 131.486C92.7248 131.209 92.6337 130.984 92.4522 130.812C92.2798 130.64 92.0505 130.496 91.7634 130.382C91.4766 130.267 91.1515 130.166 90.7881 130.08C90.4245 129.994 90.0564 129.899 89.6833 129.793C89.3008 129.698 88.9281 129.583 88.5644 129.449C88.2011 129.306 87.8759 129.124 87.5892 128.904C87.3021 128.684 87.068 128.411 86.8861 128.086C86.7141 127.752 86.6281 127.35 86.6281 126.881C86.6281 126.355 86.7381 125.901 86.958 125.519C87.1874 125.126 87.4839 124.801 87.8472 124.543C88.2109 124.285 88.6221 124.094 89.0809 123.969C89.54 123.845 89.9991 123.783 90.4582 123.783C90.9936 123.783 91.5053 123.845 91.9931 123.969C92.4904 124.084 92.9302 124.275 93.3128 124.543C93.6953 124.811 93.9966 125.155 94.2165 125.576C94.4459 125.987 94.561 126.489 94.561 127.082H92.3804C92.3611 126.776 92.2944 126.523 92.1797 126.322C92.0744 126.121 91.9307 125.963 91.7492 125.848C91.5674 125.734 91.3572 125.652 91.1181 125.605C90.8883 125.557 90.635 125.533 90.3577 125.533C90.1759 125.533 89.9944 125.552 89.8125 125.59C89.6307 125.629 89.4634 125.695 89.3106 125.791C89.1669 125.887 89.0475 126.006 88.952 126.15C88.8562 126.293 88.8083 126.475 88.8083 126.695C88.8083 126.896 88.8468 127.058 88.9233 127.183C88.9996 127.307 89.148 127.422 89.3679 127.527C89.5973 127.632 89.9084 127.737 90.3004 127.842C90.7021 127.948 91.2233 128.082 91.8639 128.244C92.0552 128.282 92.3183 128.354 92.653 128.459C92.997 128.555 93.3367 128.713 93.6714 128.933C94.006 129.153 94.2931 129.449 94.5323 129.822C94.7809 130.185 94.905 130.654 94.905 131.228C94.905 131.696 94.8143 132.132 94.6324 132.533C94.451 132.935 94.1784 133.284 93.8147 133.58C93.4609 133.867 93.0163 134.092 92.4809 134.255C91.9547 134.417 91.3427 134.499 90.6444 134.499C90.0804 134.499 89.5305 134.427 88.9948 134.283C88.4689 134.149 88.0004 133.934 87.5892 133.638C87.1874 133.341 86.8669 132.964 86.6281 132.505C86.3889 132.046 86.2742 131.5 86.2836 130.869H88.4642ZM97.6365 130.869C97.6365 131.214 97.6986 131.505 97.8231 131.744C97.9476 131.983 98.1098 132.179 98.3109 132.332C98.521 132.476 98.7649 132.586 99.0426 132.662C99.3199 132.729 99.6066 132.763 99.9031 132.763C100.104 132.763 100.319 132.748 100.549 132.72C100.778 132.682 100.993 132.615 101.194 132.519C101.395 132.423 101.563 132.294 101.696 132.132C101.83 131.959 101.897 131.744 101.897 131.486C101.897 131.209 101.806 130.984 101.625 130.812C101.453 130.64 101.223 130.496 100.936 130.382C100.649 130.267 100.324 130.166 99.9605 130.08C99.5972 129.994 99.2288 129.899 98.856 129.793C98.4735 129.698 98.1004 129.583 97.7371 129.449C97.3738 129.306 97.0486 129.124 96.7615 128.904C96.4748 128.684 96.2403 128.411 96.0585 128.086C95.8864 127.752 95.8004 127.35 95.8004 126.881C95.8004 126.355 95.9104 125.901 96.1303 125.519C96.3597 125.126 96.6562 124.801 97.0199 124.543C97.3832 124.285 97.7944 124.094 98.2535 123.969C98.7123 123.845 99.1714 123.783 99.6306 123.783C100.166 123.783 100.678 123.845 101.165 123.969C101.663 124.084 102.103 124.275 102.485 124.543C102.868 124.811 103.169 125.155 103.389 125.576C103.619 125.987 103.733 126.489 103.733 127.082H101.553C101.534 126.776 101.467 126.523 101.352 126.322C101.247 126.121 101.103 125.963 100.922 125.848C100.74 125.734 100.53 125.652 100.29 125.605C100.061 125.557 99.8077 125.533 99.53 125.533C99.3485 125.533 99.1667 125.552 98.9849 125.59C98.8034 125.629 98.6361 125.695 98.4829 125.791C98.3396 125.887 98.2198 126.006 98.1243 126.15C98.0285 126.293 97.981 126.475 97.981 126.695C97.981 126.896 98.0191 127.058 98.0957 127.183C98.1722 127.307 98.3203 127.422 98.5403 127.527C98.77 127.632 99.0807 127.737 99.4727 127.842C99.8744 127.948 100.396 128.082 101.036 128.244C101.228 128.282 101.491 128.354 101.825 128.459C102.17 128.555 102.509 128.713 102.844 128.933C103.179 129.153 103.465 129.449 103.705 129.822C103.953 130.185 104.078 130.654 104.078 131.228C104.078 131.696 103.987 132.132 103.805 132.533C103.623 132.935 103.351 133.284 102.987 133.58C102.634 133.867 102.189 134.092 101.653 134.255C101.127 134.417 100.515 134.499 99.8171 134.499C99.2527 134.499 98.7029 134.427 98.1675 134.283C97.6412 134.149 97.1727 133.934 96.7615 133.638C96.3597 133.341 96.0396 132.964 95.8004 132.505C95.5612 132.046 95.4465 131.5 95.456 130.869H97.6365ZM109.123 124.027H112.293L114.689 131.07H114.718L116.984 124.027H120.155V134.269H118.046V127.01H118.017L115.507 134.269H113.771L111.261 127.082H111.232V134.269H109.123V124.027ZM121.994 124.027H129.654V125.92H124.246V128.115H129.21V129.865H124.246V132.375H129.769V134.269H121.994V124.027ZM133.735 130.31H136.388L135.097 126.551H135.069L133.735 130.31ZM133.95 124.027H136.259L140.089 134.269H137.751L136.976 131.988H133.146L132.343 134.269H130.076L133.95 124.027ZM140.829 124.027H143.067L147.342 130.898H147.371V124.027H149.479V134.269H147.227L142.967 127.412H142.938V134.269H140.829V124.027ZM152.853 130.869C152.853 131.214 152.915 131.505 153.04 131.744C153.164 131.983 153.327 132.179 153.528 132.332C153.738 132.476 153.982 132.586 154.259 132.662C154.537 132.729 154.823 132.763 155.12 132.763C155.321 132.763 155.536 132.748 155.766 132.72C155.995 132.682 156.21 132.615 156.411 132.519C156.612 132.423 156.779 132.294 156.913 132.132C157.047 131.959 157.114 131.744 157.114 131.486C157.114 131.209 157.023 130.984 156.841 130.812C156.669 130.64 156.44 130.496 156.153 130.382C155.866 130.267 155.541 130.166 155.177 130.08C154.814 129.994 154.446 129.899 154.073 129.793C153.69 129.698 153.317 129.583 152.954 129.449C152.591 129.306 152.265 129.124 151.978 128.904C151.692 128.684 151.457 128.411 151.276 128.086C151.103 127.752 151.017 127.35 151.017 126.881C151.017 126.355 151.127 125.901 151.347 125.519C151.577 125.126 151.873 124.801 152.237 124.543C152.6 124.285 153.011 124.094 153.47 123.969C153.929 123.845 154.388 123.783 154.847 123.783C155.383 123.783 155.894 123.845 156.382 123.969C156.88 124.084 157.319 124.275 157.702 124.543C158.084 124.811 158.386 125.155 158.606 125.576C158.835 125.987 158.95 126.489 158.95 127.082H156.77C156.751 126.776 156.684 126.523 156.569 126.322C156.464 126.121 156.32 125.963 156.138 125.848C155.957 125.734 155.746 125.652 155.507 125.605C155.278 125.557 155.025 125.533 154.747 125.533C154.565 125.533 154.384 125.552 154.202 125.59C154.02 125.629 153.853 125.695 153.7 125.791C153.556 125.887 153.437 126.006 153.341 126.15C153.246 126.293 153.198 126.475 153.198 126.695C153.198 126.896 153.236 127.058 153.312 127.183C153.389 127.307 153.537 127.422 153.757 127.527C153.987 127.632 154.298 127.737 154.689 127.842C155.091 127.948 155.612 128.082 156.253 128.244C156.444 128.282 156.707 128.354 157.042 128.459C157.387 128.555 157.726 128.713 158.061 128.933C158.396 129.153 158.682 129.449 158.921 129.822C159.17 130.185 159.295 130.654 159.295 131.228C159.295 131.696 159.203 132.132 159.022 132.533C158.84 132.935 158.568 133.284 158.204 133.58C157.85 133.867 157.406 134.092 156.87 134.255C156.344 134.417 155.732 134.499 155.034 134.499C154.47 134.499 153.92 134.427 153.384 134.283C152.858 134.149 152.39 133.934 151.978 133.638C151.577 133.341 151.256 132.964 151.017 132.505C150.778 132.046 150.663 131.5 150.673 130.869H152.853ZM174.095 134.269H171.857L170.121 127.297H170.092L168.386 134.269H166.104L163.393 124.027H165.645L167.267 130.998H167.295L169.074 124.027H171.183L172.933 131.084H172.962L174.64 124.027H176.849L174.095 134.269ZM177.743 124.027H185.404V125.92H179.995V128.115H184.959V129.865H179.995V132.375H185.518V134.269H177.743V124.027ZM189.484 130.31H192.138L190.847 126.551H190.818L189.484 130.31ZM189.699 124.027H192.008L195.839 134.269H193.501L192.726 131.988H188.896L188.092 134.269H185.826L189.699 124.027ZM196.578 124.027H198.831V132.375H203.823V134.269H196.578V124.027ZM205.888 125.92H202.818V124.027H211.21V125.92H208.14V134.269H205.888V125.92ZM212.248 124.027H214.5V127.957H218.646V124.027H220.898V134.269H218.646V129.851H214.5V134.269H212.248V124.027Z" fill="white" style="fill:white;fill-opacity:1;"/>
<path d="M224.445 124.739H225.002C225.123 124.739 225.235 124.736 225.34 124.731C225.45 124.72 225.546 124.697 225.63 124.66C225.714 124.623 225.78 124.569 225.826 124.495C225.879 124.417 225.905 124.31 225.905 124.174C225.905 124.058 225.881 123.967 225.834 123.899C225.793 123.831 225.735 123.779 225.662 123.742C225.594 123.705 225.513 123.682 225.418 123.671C225.329 123.656 225.241 123.648 225.152 123.648H224.445V124.739ZM223.912 123.216H225.238C225.646 123.216 225.947 123.297 226.14 123.46C226.339 123.622 226.439 123.868 226.439 124.197C226.439 124.506 226.352 124.733 226.179 124.88C226.007 125.021 225.793 125.105 225.536 125.131L226.517 126.645H225.944L225.01 125.17H224.445V126.645H223.912V123.216ZM222.633 124.919C222.633 125.28 222.693 125.615 222.813 125.923C222.939 126.227 223.109 126.491 223.323 126.716C223.543 126.941 223.799 127.119 224.092 127.25C224.391 127.375 224.712 127.438 225.058 127.438C225.397 127.438 225.714 127.375 226.007 127.25C226.3 127.119 226.554 126.941 226.768 126.716C226.988 126.491 227.158 126.227 227.278 125.923C227.404 125.615 227.466 125.28 227.466 124.919C227.466 124.569 227.404 124.242 227.278 123.938C227.158 123.635 226.988 123.373 226.768 123.154C226.554 122.929 226.3 122.753 226.007 122.628C225.714 122.497 225.397 122.432 225.058 122.432C224.712 122.432 224.391 122.497 224.092 122.628C223.799 122.753 223.543 122.929 223.323 123.154C223.109 123.373 222.939 123.635 222.813 123.938C222.693 124.242 222.633 124.569 222.633 124.919ZM222.099 124.919C222.099 124.506 222.178 124.121 222.334 123.766C222.492 123.41 222.704 123.101 222.97 122.84C223.242 122.578 223.556 122.374 223.912 122.228C224.273 122.076 224.655 122 225.058 122C225.46 122 225.839 122.076 226.195 122.228C226.551 122.374 226.862 122.578 227.129 122.84C227.396 123.101 227.608 123.41 227.765 123.766C227.922 124.121 228 124.506 228 124.919C228 125.343 227.922 125.735 227.765 126.096C227.608 126.452 227.396 126.763 227.129 127.03C226.862 127.291 226.551 127.495 226.195 127.642C225.839 127.788 225.46 127.862 225.058 127.862C224.655 127.862 224.273 127.788 223.912 127.642C223.556 127.495 223.242 127.291 222.97 127.03C222.704 126.763 222.492 126.452 222.334 126.096C222.178 125.735 222.099 125.343 222.099 124.919Z" fill="white" style="fill:white;fill-opacity:1;"/>
</svg>
